<svg width="356" height="49" viewBox="0 0 356 49" fill="none" xmlns="http://www.w3.org/2000/svg">
<path d="M256 0H17.6287C7.89266 0 0 10.969 0 24.5C0 38.031 7.89266 49 17.6287 49H256V24.5V0Z" fill="#E1E1E1"/>
<path d="M256 0H333.885C339.75 0 345.375 2.58127 349.523 7.17591C353.67 11.7706 356 18.0022 356 24.5C356 30.9978 353.67 37.2294 349.523 41.8241C345.375 46.4187 339.75 49 333.885 49H256V0Z" fill="#F16D7F"/>
<path d="M283.141 21.537C283.099 21.607 283.053 21.6607 283.001 21.698C282.955 21.7307 282.896 21.747 282.826 21.747C282.747 21.747 282.654 21.7073 282.546 21.628C282.439 21.5487 282.304 21.4623 282.14 21.369C281.982 21.271 281.788 21.1823 281.559 21.103C281.335 21.0237 281.062 20.984 280.74 20.984C280.437 20.984 280.169 21.026 279.935 21.11C279.707 21.1893 279.513 21.299 279.354 21.439C279.2 21.579 279.084 21.7447 279.004 21.936C278.925 22.1227 278.885 22.3257 278.885 22.545C278.885 22.825 278.953 23.0583 279.088 23.245C279.228 23.427 279.41 23.5833 279.634 23.714C279.863 23.8447 280.12 23.959 280.404 24.057C280.694 24.1503 280.988 24.2483 281.286 24.351C281.59 24.4537 281.884 24.5703 282.168 24.701C282.458 24.827 282.714 24.988 282.938 25.184C283.167 25.38 283.349 25.6203 283.484 25.905C283.624 26.1897 283.694 26.5397 283.694 26.955C283.694 27.3937 283.62 27.8067 283.47 28.194C283.321 28.5767 283.102 28.9103 282.812 29.195C282.528 29.4797 282.175 29.7037 281.755 29.867C281.34 30.0303 280.866 30.112 280.334 30.112C279.681 30.112 279.088 29.9953 278.556 29.762C278.024 29.524 277.569 29.2043 277.191 28.803L277.583 28.159C277.621 28.1077 277.665 28.0657 277.716 28.033C277.772 27.9957 277.833 27.977 277.898 27.977C277.959 27.977 278.027 28.0027 278.101 28.054C278.181 28.1007 278.269 28.1613 278.367 28.236C278.465 28.3107 278.577 28.3923 278.703 28.481C278.829 28.5697 278.972 28.6513 279.13 28.726C279.294 28.8007 279.478 28.8637 279.683 28.915C279.889 28.9617 280.12 28.985 280.376 28.985C280.698 28.985 280.985 28.9407 281.237 28.852C281.489 28.7633 281.702 28.6397 281.874 28.481C282.052 28.3177 282.187 28.124 282.28 27.9C282.374 27.676 282.42 27.4263 282.42 27.151C282.42 26.8477 282.35 26.6003 282.21 26.409C282.075 26.213 281.895 26.0497 281.671 25.919C281.447 25.7883 281.191 25.6787 280.901 25.59C280.612 25.4967 280.318 25.4033 280.019 25.31C279.721 25.212 279.427 25.1 279.137 24.974C278.848 24.848 278.591 24.6847 278.367 24.484C278.143 24.2833 277.961 24.0337 277.821 23.735C277.686 23.4317 277.618 23.0583 277.618 22.615C277.618 22.2603 277.686 21.9173 277.821 21.586C277.961 21.2547 278.162 20.9607 278.423 20.704C278.689 20.4473 279.014 20.242 279.396 20.088C279.784 19.934 280.227 19.857 280.726 19.857C281.286 19.857 281.795 19.9457 282.252 20.123C282.714 20.3003 283.12 20.557 283.47 20.893L283.141 21.537ZM291.012 22.909V30H290.27C290.093 30 289.981 29.9137 289.934 29.741L289.836 28.978C289.528 29.3187 289.183 29.594 288.8 29.804C288.418 30.0093 287.979 30.112 287.484 30.112C287.097 30.112 286.754 30.049 286.455 29.923C286.161 29.7923 285.914 29.6103 285.713 29.377C285.513 29.1437 285.361 28.8613 285.258 28.53C285.16 28.1987 285.111 27.8323 285.111 27.431V22.909H286.357V27.431C286.357 27.9677 286.479 28.383 286.721 28.677C286.969 28.971 287.344 29.118 287.848 29.118C288.217 29.118 288.56 29.0317 288.877 28.859C289.199 28.6817 289.496 28.439 289.766 28.131V22.909H291.012ZM294.241 28.292C294.47 28.6 294.719 28.817 294.99 28.943C295.265 29.069 295.566 29.132 295.893 29.132C296.56 29.132 297.071 28.8963 297.426 28.425C297.781 27.9537 297.958 27.2513 297.958 26.318C297.958 25.45 297.799 24.813 297.482 24.407C297.169 23.9963 296.721 23.791 296.138 23.791C295.732 23.791 295.377 23.8843 295.074 24.071C294.775 24.2577 294.498 24.5213 294.241 24.862V28.292ZM294.241 23.931C294.54 23.5857 294.876 23.3103 295.249 23.105C295.627 22.8997 296.061 22.797 296.551 22.797C296.966 22.797 297.34 22.8763 297.671 23.035C298.007 23.1937 298.292 23.4247 298.525 23.728C298.758 24.0267 298.936 24.3907 299.057 24.82C299.183 25.2493 299.246 25.7323 299.246 26.269C299.246 26.843 299.176 27.3657 299.036 27.837C298.896 28.3083 298.693 28.712 298.427 29.048C298.166 29.3793 297.846 29.6383 297.468 29.825C297.09 30.007 296.665 30.098 296.194 30.098C295.727 30.098 295.333 30.0117 295.011 29.839C294.694 29.6617 294.416 29.412 294.178 29.09L294.115 29.734C294.078 29.9113 293.97 30 293.793 30H292.988V19.689H294.241V23.931ZM304.952 24.078C304.896 24.1807 304.81 24.232 304.693 24.232C304.623 24.232 304.544 24.2063 304.455 24.155C304.366 24.1037 304.257 24.0477 304.126 23.987C304 23.9217 303.848 23.8633 303.671 23.812C303.494 23.756 303.284 23.728 303.041 23.728C302.831 23.728 302.642 23.756 302.474 23.812C302.306 23.8633 302.161 23.9357 302.04 24.029C301.923 24.1223 301.832 24.232 301.767 24.358C301.706 24.4793 301.676 24.6123 301.676 24.757C301.676 24.939 301.727 25.0907 301.83 25.212C301.937 25.3333 302.077 25.4383 302.25 25.527C302.423 25.6157 302.619 25.695 302.838 25.765C303.057 25.8303 303.281 25.9027 303.51 25.982C303.743 26.0567 303.97 26.1407 304.189 26.234C304.408 26.3273 304.604 26.444 304.777 26.584C304.95 26.724 305.087 26.8967 305.19 27.102C305.297 27.3027 305.351 27.5453 305.351 27.83C305.351 28.1567 305.293 28.46 305.176 28.74C305.059 29.0153 304.887 29.2557 304.658 29.461C304.429 29.6617 304.149 29.8203 303.818 29.937C303.487 30.0537 303.104 30.112 302.67 30.112C302.175 30.112 301.727 30.0327 301.326 29.874C300.925 29.7107 300.584 29.503 300.304 29.251L300.598 28.775C300.635 28.7143 300.68 28.6677 300.731 28.635C300.782 28.6023 300.848 28.586 300.927 28.586C301.011 28.586 301.1 28.6187 301.193 28.684C301.286 28.7493 301.398 28.8217 301.529 28.901C301.664 28.9803 301.828 29.0527 302.019 29.118C302.21 29.1833 302.448 29.216 302.733 29.216C302.976 29.216 303.188 29.1857 303.37 29.125C303.552 29.0597 303.704 28.9733 303.825 28.866C303.946 28.7587 304.035 28.635 304.091 28.495C304.152 28.355 304.182 28.2057 304.182 28.047C304.182 27.851 304.128 27.69 304.021 27.564C303.918 27.4333 303.781 27.3237 303.608 27.235C303.435 27.1417 303.237 27.0623 303.013 26.997C302.794 26.927 302.567 26.8547 302.334 26.78C302.105 26.7053 301.879 26.6213 301.655 26.528C301.436 26.43 301.24 26.3087 301.067 26.164C300.894 26.0193 300.754 25.842 300.647 25.632C300.544 25.4173 300.493 25.1583 300.493 24.855C300.493 24.5843 300.549 24.3253 300.661 24.078C300.773 23.826 300.936 23.6067 301.151 23.42C301.366 23.2287 301.629 23.077 301.942 22.965C302.255 22.853 302.612 22.797 303.013 22.797C303.48 22.797 303.897 22.8717 304.266 23.021C304.639 23.1657 304.961 23.3663 305.232 23.623L304.952 24.078ZM311.814 24.169C311.776 24.2203 311.739 24.26 311.702 24.288C311.664 24.316 311.613 24.33 311.548 24.33C311.478 24.33 311.401 24.302 311.317 24.246C311.233 24.1853 311.128 24.12 311.002 24.05C310.88 23.98 310.729 23.917 310.547 23.861C310.369 23.8003 310.15 23.77 309.889 23.77C309.539 23.77 309.231 23.833 308.965 23.959C308.699 24.0803 308.475 24.2577 308.293 24.491C308.115 24.7243 307.98 25.0067 307.887 25.338C307.798 25.6693 307.754 26.0403 307.754 26.451C307.754 26.8803 307.803 27.263 307.901 27.599C307.999 27.9303 308.136 28.2103 308.314 28.439C308.496 28.663 308.713 28.8357 308.965 28.957C309.221 29.0737 309.508 29.132 309.826 29.132C310.129 29.132 310.379 29.097 310.575 29.027C310.771 28.9523 310.932 28.8707 311.058 28.782C311.188 28.6933 311.296 28.614 311.38 28.544C311.468 28.4693 311.555 28.432 311.639 28.432C311.741 28.432 311.821 28.4717 311.877 28.551L312.227 29.006C312.073 29.1973 311.898 29.3607 311.702 29.496C311.506 29.6313 311.293 29.7457 311.065 29.839C310.841 29.9277 310.605 29.993 310.358 30.035C310.11 30.077 309.858 30.098 309.602 30.098C309.158 30.098 308.745 30.0163 308.363 29.853C307.985 29.6897 307.656 29.454 307.376 29.146C307.096 28.8333 306.876 28.4507 306.718 27.998C306.559 27.5453 306.48 27.0297 306.48 26.451C306.48 25.9237 306.552 25.436 306.697 24.988C306.846 24.54 307.061 24.155 307.341 23.833C307.625 23.5063 307.973 23.252 308.384 23.07C308.799 22.888 309.275 22.797 309.812 22.797C310.311 22.797 310.75 22.8787 311.128 23.042C311.51 23.2007 311.849 23.427 312.143 23.721L311.814 24.169ZM314.747 24.33C314.971 23.8447 315.246 23.4667 315.573 23.196C315.9 22.9207 316.299 22.783 316.77 22.783C316.919 22.783 317.062 22.7993 317.197 22.832C317.337 22.8647 317.461 22.916 317.568 22.986L317.477 23.917C317.449 24.0337 317.379 24.092 317.267 24.092C317.202 24.092 317.106 24.078 316.98 24.05C316.854 24.022 316.712 24.008 316.553 24.008C316.329 24.008 316.128 24.0407 315.951 24.106C315.778 24.1713 315.622 24.2693 315.482 24.4C315.347 24.526 315.223 24.6847 315.111 24.876C315.004 25.0627 314.906 25.2773 314.817 25.52V30H313.564V22.909H314.278C314.413 22.909 314.507 22.9347 314.558 22.986C314.609 23.0373 314.644 23.126 314.663 23.252L314.747 24.33ZM319.98 22.909V30H318.734V22.909H319.98ZM320.246 20.683C320.246 20.8043 320.22 20.9187 320.169 21.026C320.122 21.1287 320.057 21.222 319.973 21.306C319.893 21.3853 319.798 21.4483 319.686 21.495C319.578 21.5417 319.464 21.565 319.343 21.565C319.221 21.565 319.107 21.5417 319 21.495C318.897 21.4483 318.806 21.3853 318.727 21.306C318.647 21.222 318.584 21.1287 318.538 21.026C318.491 20.9187 318.468 20.8043 318.468 20.683C318.468 20.5617 318.491 20.4473 318.538 20.34C318.584 20.228 318.647 20.1323 318.727 20.053C318.806 19.969 318.897 19.9037 319 19.857C319.107 19.8103 319.221 19.787 319.343 19.787C319.464 19.787 319.578 19.8103 319.686 19.857C319.798 19.9037 319.893 19.969 319.973 20.053C320.057 20.1323 320.122 20.228 320.169 20.34C320.22 20.4473 320.246 20.5617 320.246 20.683ZM323.28 28.292C323.509 28.6 323.758 28.817 324.029 28.943C324.304 29.069 324.605 29.132 324.932 29.132C325.599 29.132 326.11 28.8963 326.465 28.425C326.82 27.9537 326.997 27.2513 326.997 26.318C326.997 25.45 326.838 24.813 326.521 24.407C326.208 23.9963 325.76 23.791 325.177 23.791C324.771 23.791 324.416 23.8843 324.113 24.071C323.814 24.2577 323.537 24.5213 323.28 24.862V28.292ZM323.28 23.931C323.579 23.5857 323.915 23.3103 324.288 23.105C324.666 22.8997 325.1 22.797 325.59 22.797C326.005 22.797 326.379 22.8763 326.71 23.035C327.046 23.1937 327.331 23.4247 327.564 23.728C327.797 24.0267 327.975 24.3907 328.096 24.82C328.222 25.2493 328.285 25.7323 328.285 26.269C328.285 26.843 328.215 27.3657 328.075 27.837C327.935 28.3083 327.732 28.712 327.466 29.048C327.205 29.3793 326.885 29.6383 326.507 29.825C326.129 30.007 325.704 30.098 325.233 30.098C324.766 30.098 324.372 30.0117 324.05 29.839C323.733 29.6617 323.455 29.412 323.217 29.09L323.154 29.734C323.117 29.9113 323.009 30 322.832 30H322.027V19.689H323.28V23.931ZM334.607 25.681C334.607 25.3917 334.565 25.128 334.481 24.89C334.402 24.6473 334.283 24.4397 334.124 24.267C333.97 24.0897 333.781 23.9543 333.557 23.861C333.333 23.763 333.079 23.714 332.794 23.714C332.197 23.714 331.723 23.889 331.373 24.239C331.028 24.5843 330.813 25.065 330.729 25.681H334.607ZM335.615 29.006C335.461 29.1927 335.277 29.356 335.062 29.496C334.847 29.6313 334.616 29.7433 334.369 29.832C334.126 29.9207 333.874 29.986 333.613 30.028C333.352 30.0747 333.093 30.098 332.836 30.098C332.346 30.098 331.893 30.0163 331.478 29.853C331.067 29.685 330.71 29.4423 330.407 29.125C330.108 28.803 329.875 28.4063 329.707 27.935C329.539 27.4637 329.455 26.9223 329.455 26.311C329.455 25.8163 329.53 25.3543 329.679 24.925C329.833 24.4957 330.052 24.1247 330.337 23.812C330.622 23.4947 330.969 23.2473 331.38 23.07C331.791 22.888 332.253 22.797 332.766 22.797C333.191 22.797 333.583 22.8693 333.942 23.014C334.306 23.154 334.619 23.3593 334.88 23.63C335.146 23.896 335.354 24.2273 335.503 24.624C335.652 25.016 335.727 25.464 335.727 25.968C335.727 26.164 335.706 26.2947 335.664 26.36C335.622 26.4253 335.543 26.458 335.426 26.458H330.687C330.701 26.906 330.762 27.2957 330.869 27.627C330.981 27.9583 331.135 28.236 331.331 28.46C331.527 28.6793 331.76 28.845 332.031 28.957C332.302 29.0643 332.605 29.118 332.941 29.118C333.254 29.118 333.522 29.083 333.746 29.013C333.975 28.9383 334.171 28.859 334.334 28.775C334.497 28.691 334.633 28.614 334.74 28.544C334.852 28.4693 334.948 28.432 335.027 28.432C335.13 28.432 335.209 28.4717 335.265 28.551L335.615 29.006Z" fill="white"/>
<path opacity="0.671" d="M29.469 28.894L29.462 30H23.281V19.969H29.462V21.075H24.639V24.407H28.545V25.471H24.639V28.894H29.469ZM32.0517 23.938C32.2057 23.7653 32.369 23.609 32.5417 23.469C32.7143 23.329 32.8963 23.21 33.0877 23.112C33.2837 23.0093 33.489 22.9323 33.7037 22.881C33.923 22.825 34.1587 22.797 34.4107 22.797C34.798 22.797 35.1387 22.8623 35.4327 22.993C35.7313 23.119 35.9787 23.301 36.1747 23.539C36.3753 23.7723 36.527 24.0547 36.6297 24.386C36.7323 24.7173 36.7837 25.0837 36.7837 25.485V30H35.5307V25.485C35.5307 24.9483 35.407 24.533 35.1597 24.239C34.917 23.9403 34.546 23.791 34.0467 23.791C33.678 23.791 33.3327 23.8797 33.0107 24.057C32.6933 24.2343 32.3993 24.4747 32.1287 24.778V30H30.8757V22.909H31.6247C31.802 22.909 31.9117 22.9953 31.9537 23.168L32.0517 23.938ZM40.7636 30.112C40.2036 30.112 39.7719 29.9557 39.4686 29.643C39.1699 29.3303 39.0206 28.88 39.0206 28.292V23.952H38.1666C38.0919 23.952 38.0289 23.931 37.9776 23.889C37.9263 23.8423 37.9006 23.7723 37.9006 23.679V23.182L39.0626 23.035L39.3496 20.844C39.3636 20.774 39.3939 20.718 39.4406 20.676C39.4919 20.6293 39.5573 20.606 39.6366 20.606H40.2666V23.049H42.3176V23.952H40.2666V28.208C40.2666 28.5067 40.3389 28.7283 40.4836 28.873C40.6283 29.0177 40.8149 29.09 41.0436 29.09C41.1743 29.09 41.2863 29.0737 41.3796 29.041C41.4776 29.0037 41.5616 28.964 41.6316 28.922C41.7016 28.88 41.7599 28.8427 41.8066 28.81C41.8579 28.7727 41.9023 28.754 41.9396 28.754C42.0049 28.754 42.0633 28.7937 42.1146 28.873L42.4786 29.468C42.2639 29.6687 42.0049 29.8273 41.7016 29.944C41.3983 30.056 41.0856 30.112 40.7636 30.112ZM48.3092 25.681C48.3092 25.3917 48.2672 25.128 48.1832 24.89C48.1038 24.6473 47.9848 24.4397 47.8262 24.267C47.6722 24.0897 47.4832 23.9543 47.2592 23.861C47.0352 23.763 46.7808 23.714 46.4962 23.714C45.8988 23.714 45.4252 23.889 45.0752 24.239C44.7298 24.5843 44.5152 25.065 44.4312 25.681H48.3092ZM49.3172 29.006C49.1632 29.1927 48.9788 29.356 48.7642 29.496C48.5495 29.6313 48.3185 29.7433 48.0712 29.832C47.8285 29.9207 47.5765 29.986 47.3152 30.028C47.0538 30.0747 46.7948 30.098 46.5382 30.098C46.0482 30.098 45.5955 30.0163 45.1802 29.853C44.7695 29.685 44.4125 29.4423 44.1092 29.125C43.8105 28.803 43.5772 28.4063 43.4092 27.935C43.2412 27.4637 43.1572 26.9223 43.1572 26.311C43.1572 25.8163 43.2318 25.3543 43.3812 24.925C43.5352 24.4957 43.7545 24.1247 44.0392 23.812C44.3238 23.4947 44.6715 23.2473 45.0822 23.07C45.4928 22.888 45.9548 22.797 46.4682 22.797C46.8928 22.797 47.2848 22.8693 47.6442 23.014C48.0082 23.154 48.3208 23.3593 48.5822 23.63C48.8482 23.896 49.0558 24.2273 49.2052 24.624C49.3545 25.016 49.4292 25.464 49.4292 25.968C49.4292 26.164 49.4082 26.2947 49.3662 26.36C49.3242 26.4253 49.2448 26.458 49.1282 26.458H44.3892C44.4032 26.906 44.4638 27.2957 44.5712 27.627C44.6832 27.9583 44.8372 28.236 45.0332 28.46C45.2292 28.6793 45.4625 28.845 45.7332 28.957C46.0038 29.0643 46.3072 29.118 46.6432 29.118C46.9558 29.118 47.2242 29.083 47.4482 29.013C47.6768 28.9383 47.8728 28.859 48.0362 28.775C48.1995 28.691 48.3348 28.614 48.4422 28.544C48.5542 28.4693 48.6498 28.432 48.7292 28.432C48.8318 28.432 48.9112 28.4717 48.9672 28.551L49.3172 29.006ZM52.1427 24.33C52.3667 23.8447 52.642 23.4667 52.9687 23.196C53.2953 22.9207 53.6943 22.783 54.1657 22.783C54.315 22.783 54.4573 22.7993 54.5927 22.832C54.7327 22.8647 54.8563 22.916 54.9637 22.986L54.8727 23.917C54.8447 24.0337 54.7747 24.092 54.6627 24.092C54.5973 24.092 54.5017 24.078 54.3757 24.05C54.2497 24.022 54.1073 24.008 53.9487 24.008C53.7247 24.008 53.524 24.0407 53.3467 24.106C53.174 24.1713 53.0177 24.2693 52.8777 24.4C52.7423 24.526 52.6187 24.6847 52.5067 24.876C52.3993 25.0627 52.3013 25.2773 52.2127 25.52V30H50.9597V22.909H51.6737C51.809 22.909 51.9023 22.9347 51.9537 22.986C52.005 23.0373 52.04 23.126 52.0587 23.252L52.1427 24.33ZM62.8536 26.003V30H61.4956V26.003L57.8206 19.969H59.0106C59.132 19.969 59.2276 19.9993 59.2976 20.06C59.3676 20.116 59.4283 20.1907 59.4796 20.284L61.7756 24.183C61.8596 24.3463 61.9366 24.5003 62.0066 24.645C62.0766 24.785 62.1373 24.9273 62.1886 25.072C62.24 24.9273 62.2983 24.785 62.3636 24.645C62.429 24.5003 62.5013 24.3463 62.5806 24.183L64.8696 20.284C64.9116 20.2047 64.97 20.1323 65.0446 20.067C65.1193 20.0017 65.215 19.969 65.3316 19.969H66.5286L62.8536 26.003ZM68.9877 22.797C69.5057 22.797 69.9724 22.8833 70.3877 23.056C70.8031 23.2287 71.1577 23.4737 71.4517 23.791C71.7457 24.1083 71.9697 24.4933 72.1237 24.946C72.2824 25.394 72.3617 25.8957 72.3617 26.451C72.3617 27.011 72.2824 27.515 72.1237 27.963C71.9697 28.411 71.7457 28.7937 71.4517 29.111C71.1577 29.4283 70.8031 29.6733 70.3877 29.846C69.9724 30.014 69.5057 30.098 68.9877 30.098C68.4651 30.098 67.9937 30.014 67.5737 29.846C67.1584 29.6733 66.8037 29.4283 66.5097 29.111C66.2157 28.7937 65.9894 28.411 65.8307 27.963C65.6767 27.515 65.5997 27.011 65.5997 26.451C65.5997 25.8957 65.6767 25.394 65.8307 24.946C65.9894 24.4933 66.2157 24.1083 66.5097 23.791C66.8037 23.4737 67.1584 23.2287 67.5737 23.056C67.9937 22.8833 68.4651 22.797 68.9877 22.797ZM68.9877 29.125C69.6877 29.125 70.2104 28.8917 70.5557 28.425C70.9011 27.9537 71.0737 27.298 71.0737 26.458C71.0737 25.6133 70.9011 24.9553 70.5557 24.484C70.2104 24.0127 69.6877 23.777 68.9877 23.777C68.6331 23.777 68.3227 23.8377 68.0567 23.959C67.7954 24.0803 67.5761 24.2553 67.3987 24.484C67.2261 24.7127 67.0954 24.995 67.0067 25.331C66.9227 25.6623 66.8807 26.038 66.8807 26.458C66.8807 27.298 67.0534 27.9537 67.3987 28.425C67.7487 28.8917 68.2784 29.125 68.9877 29.125ZM79.7731 22.909V30H79.0311C78.8537 30 78.7417 29.9137 78.6951 29.741L78.5971 28.978C78.2891 29.3187 77.9437 29.594 77.5611 29.804C77.1784 30.0093 76.7397 30.112 76.2451 30.112C75.8577 30.112 75.5147 30.049 75.2161 29.923C74.9221 29.7923 74.6747 29.6103 74.4741 29.377C74.2734 29.1437 74.1217 28.8613 74.0191 28.53C73.9211 28.1987 73.8721 27.8323 73.8721 27.431V22.909H75.1181V27.431C75.1181 27.9677 75.2394 28.383 75.4821 28.677C75.7294 28.971 76.1051 29.118 76.6091 29.118C76.9777 29.118 77.3207 29.0317 77.6381 28.859C77.9601 28.6817 78.2564 28.439 78.5271 28.131V22.909H79.7731ZM82.9317 24.33C83.1557 23.8447 83.4311 23.4667 83.7577 23.196C84.0844 22.9207 84.4834 22.783 84.9547 22.783C85.1041 22.783 85.2464 22.7993 85.3817 22.832C85.5217 22.8647 85.6454 22.916 85.7527 22.986L85.6617 23.917C85.6337 24.0337 85.5637 24.092 85.4517 24.092C85.3864 24.092 85.2907 24.078 85.1647 24.05C85.0387 24.022 84.8964 24.008 84.7377 24.008C84.5137 24.008 84.3131 24.0407 84.1357 24.106C83.9631 24.1713 83.8067 24.2693 83.6667 24.4C83.5314 24.526 83.4077 24.6847 83.2957 24.876C83.1884 25.0627 83.0904 25.2773 83.0017 25.52V30H81.7487V22.909H82.4627C82.5981 22.909 82.6914 22.9347 82.7427 22.986C82.7941 23.0373 82.8291 23.126 82.8477 23.252L82.9317 24.33ZM96.6116 28.894L96.6046 30H90.4236V19.969H96.6046V21.075H91.7816V24.407H95.6876V25.471H91.7816V28.894H96.6116ZM98.0183 30V22.909H98.7673C98.9446 22.909 99.0543 22.9953 99.0963 23.168L99.1873 23.896C99.4486 23.574 99.7426 23.3103 100.069 23.105C100.396 22.8997 100.774 22.797 101.203 22.797C101.679 22.797 102.064 22.93 102.358 23.196C102.657 23.462 102.872 23.8213 103.002 24.274C103.105 24.0173 103.236 23.7957 103.394 23.609C103.558 23.4223 103.74 23.2683 103.94 23.147C104.141 23.0257 104.353 22.937 104.577 22.881C104.806 22.825 105.037 22.797 105.27 22.797C105.644 22.797 105.975 22.8577 106.264 22.979C106.558 23.0957 106.806 23.2683 107.006 23.497C107.212 23.7257 107.368 24.008 107.475 24.344C107.583 24.6753 107.636 25.0557 107.636 25.485V30H106.383V25.485C106.383 24.9297 106.262 24.5097 106.019 24.225C105.777 23.9357 105.427 23.791 104.969 23.791C104.764 23.791 104.568 23.8283 104.381 23.903C104.199 23.973 104.038 24.078 103.898 24.218C103.758 24.358 103.646 24.5353 103.562 24.75C103.483 24.96 103.443 25.205 103.443 25.485V30H102.19V25.485C102.19 24.9157 102.076 24.491 101.847 24.211C101.619 23.931 101.285 23.791 100.846 23.791C100.538 23.791 100.254 23.875 99.9923 24.043C99.7309 24.2063 99.4906 24.4303 99.2713 24.715V30H98.0183ZM113.373 26.808C112.799 26.8267 112.309 26.8733 111.903 26.948C111.502 27.018 111.173 27.1113 110.916 27.228C110.664 27.3447 110.48 27.4823 110.363 27.641C110.251 27.7997 110.195 27.977 110.195 28.173C110.195 28.3597 110.225 28.5207 110.286 28.656C110.347 28.7913 110.428 28.9033 110.531 28.992C110.638 29.076 110.762 29.139 110.902 29.181C111.047 29.2183 111.201 29.237 111.364 29.237C111.583 29.237 111.784 29.216 111.966 29.174C112.148 29.1273 112.318 29.062 112.477 28.978C112.64 28.894 112.794 28.7937 112.939 28.677C113.088 28.5603 113.233 28.4273 113.373 28.278V26.808ZM109.348 23.91C109.74 23.532 110.162 23.2497 110.615 23.063C111.068 22.8763 111.569 22.783 112.12 22.783C112.517 22.783 112.869 22.8483 113.177 22.979C113.485 23.1097 113.744 23.2917 113.954 23.525C114.164 23.7583 114.323 24.0407 114.43 24.372C114.537 24.7033 114.591 25.0673 114.591 25.464V30H114.038C113.917 30 113.823 29.9813 113.758 29.944C113.693 29.902 113.641 29.8227 113.604 29.706L113.464 29.034C113.277 29.2067 113.095 29.3607 112.918 29.496C112.741 29.6267 112.554 29.7387 112.358 29.832C112.162 29.9207 111.952 29.9883 111.728 30.035C111.509 30.0863 111.264 30.112 110.993 30.112C110.718 30.112 110.459 30.0747 110.216 30C109.973 29.9207 109.761 29.804 109.579 29.65C109.402 29.496 109.259 29.3023 109.152 29.069C109.049 28.831 108.998 28.551 108.998 28.229C108.998 27.949 109.075 27.6807 109.229 27.424C109.383 27.1627 109.633 26.9317 109.978 26.731C110.323 26.5303 110.774 26.367 111.329 26.241C111.884 26.1103 112.566 26.0357 113.373 26.017V25.464C113.373 24.9133 113.254 24.498 113.016 24.218C112.778 23.9333 112.43 23.791 111.973 23.791C111.665 23.791 111.406 23.8307 111.196 23.91C110.991 23.9847 110.811 24.071 110.657 24.169C110.508 24.2623 110.377 24.3487 110.265 24.428C110.158 24.5027 110.05 24.54 109.943 24.54C109.859 24.54 109.787 24.519 109.726 24.477C109.665 24.4303 109.614 24.3743 109.572 24.309L109.348 23.91ZM117.805 22.909V30H116.559V22.909H117.805ZM118.071 20.683C118.071 20.8043 118.045 20.9187 117.994 21.026C117.947 21.1287 117.882 21.222 117.798 21.306C117.719 21.3853 117.623 21.4483 117.511 21.495C117.404 21.5417 117.289 21.565 117.168 21.565C117.047 21.565 116.932 21.5417 116.825 21.495C116.722 21.4483 116.631 21.3853 116.552 21.306C116.473 21.222 116.41 21.1287 116.363 21.026C116.316 20.9187 116.293 20.8043 116.293 20.683C116.293 20.5617 116.316 20.4473 116.363 20.34C116.41 20.228 116.473 20.1323 116.552 20.053C116.631 19.969 116.722 19.9037 116.825 19.857C116.932 19.8103 117.047 19.787 117.168 19.787C117.289 19.787 117.404 19.8103 117.511 19.857C117.623 19.9037 117.719 19.969 117.798 20.053C117.882 20.1323 117.947 20.228 117.994 20.34C118.045 20.4473 118.071 20.5617 118.071 20.683ZM121.14 19.689V30H119.894V19.689H121.14Z" fill="#222224"/>
</svg>
