<svg width="234" height="53" viewBox="0 0 234 53" fill="none" xmlns="http://www.w3.org/2000/svg">
<path d="M22.401 5.029H14.345V28H8.626V5.029H0.57V0.430998H22.401V5.029ZM49.4386 0.430998V28H43.7006V16.125H31.5596V28H25.8216V0.430998H31.5596V12.135H43.7006V0.430998H49.4386ZM60.9502 4.896V11.983H70.1462V16.296H60.9502V23.535H72.7682V28H55.2122V0.430998H72.7682V4.896H60.9502ZM96.6331 23.63C97.5451 23.63 98.2924 23.5223 98.8751 23.307C99.4704 23.079 99.9454 22.7813 100.3 22.414C100.655 22.0467 100.902 21.6287 101.041 21.16C101.18 20.6787 101.25 20.1847 101.25 19.678C101.25 19.1207 101.168 18.6203 101.003 18.177C100.838 17.7337 100.572 17.36 100.205 17.056C99.8378 16.7393 99.3564 16.4987 98.7611 16.334C98.1784 16.1693 97.4564 16.087 96.5951 16.087H91.7501V23.63H96.6331ZM91.7501 4.763V12.211H95.4931C96.2911 12.211 97.0004 12.1477 97.6211 12.021C98.2418 11.8817 98.7611 11.6663 99.1791 11.375C99.5971 11.0837 99.9138 10.7037 100.129 10.235C100.357 9.75367 100.471 9.17733 100.471 8.506C100.471 7.822 100.376 7.23933 100.186 6.758C100.009 6.27667 99.7301 5.89033 99.3501 5.599C98.9701 5.30767 98.4888 5.09867 97.9061 4.972C97.3234 4.83267 96.6331 4.763 95.8351 4.763H91.7501ZM95.8351 0.430998C97.6844 0.430998 99.2614 0.608332 100.566 0.962998C101.883 1.305 102.954 1.799 103.777 2.445C104.613 3.07833 105.221 3.851 105.601 4.763C105.981 5.675 106.171 6.69467 106.171 7.822C106.171 8.45533 106.076 9.06333 105.886 9.646C105.709 10.2287 105.424 10.7797 105.031 11.299C104.651 11.8057 104.157 12.268 103.549 12.686C102.941 13.104 102.219 13.4587 101.383 13.75C103.258 14.1933 104.645 14.9153 105.544 15.916C106.443 16.9167 106.893 18.215 106.893 19.811C106.893 20.9763 106.665 22.0593 106.209 23.06C105.766 24.0607 105.113 24.9283 104.252 25.663C103.391 26.3977 102.327 26.974 101.06 27.392C99.8061 27.7973 98.3621 28 96.7281 28H86.0501V0.430998H95.8351ZM119.873 13.484C120.798 13.484 121.596 13.37 122.267 13.142C122.939 12.9013 123.49 12.5783 123.92 12.173C124.351 11.755 124.668 11.2673 124.87 10.71C125.073 10.1527 125.174 9.54467 125.174 8.886C125.174 7.58133 124.737 6.568 123.863 5.846C123.002 5.124 121.685 4.763 119.911 4.763H116.947V13.484H119.873ZM133.23 28H128.081C127.119 28 126.422 27.6327 125.991 26.898L120.747 18.443C120.532 18.1137 120.291 17.873 120.025 17.721C119.772 17.569 119.392 17.493 118.885 17.493H116.947V28H111.247V0.430998H119.911C121.837 0.430998 123.483 0.633665 124.851 1.039C126.219 1.43167 127.34 1.98267 128.214 2.692C129.088 3.40133 129.728 4.25 130.133 5.238C130.539 6.21333 130.741 7.29 130.741 8.468C130.741 9.38 130.608 10.2477 130.342 11.071C130.089 11.8817 129.715 12.6227 129.221 13.294C128.727 13.9653 128.119 14.5607 127.397 15.08C126.675 15.5993 125.852 16.0173 124.927 16.334C125.295 16.5367 125.637 16.7837 125.953 17.075C126.27 17.3537 126.555 17.6893 126.808 18.082L133.23 28ZM150.479 17.531L147.496 9.095C147.319 8.65167 147.129 8.13233 146.926 7.537C146.736 6.94167 146.552 6.29567 146.375 5.599C146.198 6.30833 146.008 6.967 145.805 7.575C145.615 8.17033 145.431 8.68967 145.254 9.133L142.29 17.531H150.479ZM160.055 28H155.628C155.134 28 154.729 27.886 154.412 27.658C154.108 27.4173 153.88 27.1133 153.728 26.746L151.866 21.483H140.884L139.022 26.746C138.895 27.0627 138.674 27.354 138.357 27.62C138.04 27.8733 137.641 28 137.16 28H132.695L143.468 0.430998H149.301L160.055 28ZM186.224 0.430998V28H183.279C182.835 28 182.462 27.9303 182.158 27.791C181.854 27.639 181.556 27.3857 181.265 27.031L167.528 9.551C167.566 9.99433 167.591 10.4313 167.604 10.862C167.629 11.2927 167.642 11.6917 167.642 12.059V28H162.607V0.430998H165.609C165.849 0.430998 166.052 0.443665 166.217 0.468998C166.394 0.481665 166.552 0.525999 166.692 0.601999C166.831 0.665333 166.964 0.753999 167.091 0.867998C167.217 0.981999 167.357 1.134 167.509 1.324L181.341 18.88C181.29 18.3987 181.252 17.9363 181.227 17.493C181.201 17.037 181.189 16.6063 181.189 16.201V0.430998H186.224ZM216.716 14.206C216.716 16.22 216.374 18.0757 215.69 19.773C215.019 21.4577 214.063 22.908 212.821 24.124C211.593 25.34 210.111 26.29 208.375 26.974C206.64 27.658 204.715 28 202.599 28H191.997V0.430998H202.599C204.715 0.430998 206.64 0.772998 208.375 1.457C210.111 2.141 211.593 3.09733 212.821 4.326C214.063 5.542 215.019 6.99233 215.69 8.677C216.374 10.3617 216.716 12.2047 216.716 14.206ZM210.864 14.206C210.864 12.762 210.674 11.4637 210.294 10.311C209.914 9.15833 209.37 8.183 208.66 7.385C207.951 6.587 207.083 5.97267 206.057 5.542C205.044 5.11133 203.891 4.896 202.599 4.896H197.735V23.535H202.599C203.891 23.535 205.044 23.326 206.057 22.908C207.083 22.4773 207.951 21.863 208.66 21.065C209.37 20.2543 209.914 19.2727 210.294 18.12C210.674 16.9673 210.864 15.6627 210.864 14.206ZM15.4 44.77C15.4 45.83 15.2233 46.8133 14.87 47.72C14.5233 48.62 14.03 49.4 13.39 50.06C12.75 50.72 11.98 51.2367 11.08 51.61C10.18 51.9767 9.18 52.16 8.08 52.16C6.98667 52.16 5.99 51.9767 5.09 51.61C4.19 51.2367 3.41667 50.72 2.77 50.06C2.13 49.4 1.63333 48.62 1.28 47.72C0.926667 46.8133 0.75 45.83 0.75 44.77C0.75 43.71 0.926667 42.73 1.28 41.83C1.63333 40.9233 2.13 40.14 2.77 39.48C3.41667 38.82 4.19 38.3067 5.09 37.94C5.99 37.5667 6.98667 37.38 8.08 37.38C8.81333 37.38 9.50333 37.4667 10.15 37.64C10.7967 37.8067 11.39 38.0467 11.93 38.36C12.47 38.6667 12.9533 39.0433 13.38 39.49C13.8133 39.93 14.18 40.4233 14.48 40.97C14.78 41.5167 15.0067 42.11 15.16 42.75C15.32 43.39 15.4 44.0633 15.4 44.77ZM12.65 44.77C12.65 43.9767 12.5433 43.2667 12.33 42.64C12.1167 42.0067 11.8133 41.47 11.42 41.03C11.0267 40.59 10.5467 40.2533 9.98 40.02C9.42 39.7867 8.78667 39.67 8.08 39.67C7.37333 39.67 6.73667 39.7867 6.17 40.02C5.61 40.2533 5.13 40.59 4.73 41.03C4.33667 41.47 4.03333 42.0067 3.82 42.64C3.60667 43.2667 3.5 43.9767 3.5 44.77C3.5 45.5633 3.60667 46.2767 3.82 46.91C4.03333 47.5367 4.33667 48.07 4.73 48.51C5.13 48.9433 5.61 49.2767 6.17 49.51C6.73667 49.7433 7.37333 49.86 8.08 49.86C8.78667 49.86 9.42 49.7433 9.98 49.51C10.5467 49.2767 11.0267 48.9433 11.42 48.51C11.8133 48.07 12.1167 47.5367 12.33 46.91C12.5433 46.2767 12.65 45.5633 12.65 44.77ZM20.4623 39.68V43.96H25.8823V46.11H20.4623V52H17.7623V37.54H26.8823V39.68H20.4623ZM41.9355 49.78V52H33.4655V37.54H36.1555V49.78H41.9355ZM49.2855 49.83C49.8055 49.83 50.2688 49.7433 50.6755 49.57C51.0888 49.3967 51.4355 49.1533 51.7155 48.84C51.9955 48.5267 52.2088 48.1467 52.3555 47.7C52.5088 47.2533 52.5855 46.7533 52.5855 46.2V37.54H55.2755V46.2C55.2755 47.06 55.1355 47.8567 54.8555 48.59C54.5821 49.3167 54.1855 49.9467 53.6655 50.48C53.1521 51.0067 52.5255 51.42 51.7855 51.72C51.0455 52.0133 50.2121 52.16 49.2855 52.16C48.3521 52.16 47.5155 52.0133 46.7755 51.72C46.0355 51.42 45.4055 51.0067 44.8855 50.48C44.3721 49.9467 43.9755 49.3167 43.6955 48.59C43.4221 47.8567 43.2855 47.06 43.2855 46.2V37.54H45.9755V46.19C45.9755 46.7433 46.0488 47.2433 46.1955 47.69C46.3488 48.1367 46.5655 48.52 46.8455 48.84C47.1321 49.1533 47.4788 49.3967 47.8855 49.57C48.2988 49.7433 48.7655 49.83 49.2855 49.83ZM70.0592 52H67.3792C67.1926 52 67.0426 51.9533 66.9292 51.86C66.8226 51.7667 66.7359 51.66 66.6692 51.54L63.3192 45.99C63.2659 46.1567 63.2026 46.3 63.1292 46.42L59.9192 51.54C59.8392 51.6533 59.7459 51.76 59.6392 51.86C59.5392 51.9533 59.4059 52 59.2392 52H56.7292L61.5292 44.56L56.9192 37.54H59.5992C59.7859 37.54 59.9192 37.5667 59.9992 37.62C60.0859 37.6667 60.1659 37.7467 60.2392 37.86L63.5292 43.16C63.5959 42.9933 63.6759 42.8267 63.7692 42.66L66.7892 37.91C66.8626 37.7833 66.9426 37.69 67.0292 37.63C67.1159 37.57 67.2259 37.54 67.3592 37.54H69.9292L65.2792 44.45L70.0592 52ZM74.4272 39.68V43.69H79.4872V45.76H74.4272V49.85H80.8472V52H71.7272V37.54H80.8472V39.68H74.4272ZM87.6011 44.42C88.1078 44.42 88.5478 44.3567 88.9211 44.23C89.3011 44.1033 89.6111 43.93 89.8511 43.71C90.0978 43.4833 90.2811 43.2167 90.4011 42.91C90.5211 42.6033 90.5811 42.2667 90.5811 41.9C90.5811 41.1667 90.3378 40.6033 89.8511 40.21C89.3711 39.8167 88.6344 39.62 87.6411 39.62H85.9211V44.42H87.6011ZM94.5211 52H92.0911C91.6311 52 91.2978 51.82 91.0911 51.46L88.0511 46.83C87.9378 46.6567 87.8111 46.5333 87.6711 46.46C87.5378 46.3867 87.3378 46.35 87.0711 46.35H85.9211V52H83.2311V37.54H87.6411C88.6211 37.54 89.4611 37.6433 90.1611 37.85C90.8678 38.05 91.4444 38.3333 91.8911 38.7C92.3444 39.0667 92.6778 39.5067 92.8911 40.02C93.1044 40.5267 93.2111 41.0867 93.2111 41.7C93.2111 42.1867 93.1378 42.6467 92.9911 43.08C92.8511 43.5133 92.6444 43.9067 92.3711 44.26C92.1044 44.6133 91.7711 44.9233 91.3711 45.19C90.9778 45.4567 90.5278 45.6667 90.0211 45.82C90.1944 45.92 90.3544 46.04 90.5011 46.18C90.6478 46.3133 90.7811 46.4733 90.9011 46.66L94.5211 52ZM98.7827 52H96.0827V37.54H98.7827V52ZM115.81 44.77C115.81 45.83 115.633 46.8133 115.28 47.72C114.933 48.62 114.44 49.4 113.8 50.06C113.16 50.72 112.39 51.2367 111.49 51.61C110.59 51.9767 109.59 52.16 108.49 52.16C107.397 52.16 106.4 51.9767 105.5 51.61C104.6 51.2367 103.827 50.72 103.18 50.06C102.54 49.4 102.043 48.62 101.69 47.72C101.337 46.8133 101.16 45.83 101.16 44.77C101.16 43.71 101.337 42.73 101.69 41.83C102.043 40.9233 102.54 40.14 103.18 39.48C103.827 38.82 104.6 38.3067 105.5 37.94C106.4 37.5667 107.397 37.38 108.49 37.38C109.223 37.38 109.913 37.4667 110.56 37.64C111.207 37.8067 111.8 38.0467 112.34 38.36C112.88 38.6667 113.363 39.0433 113.79 39.49C114.223 39.93 114.59 40.4233 114.89 40.97C115.19 41.5167 115.417 42.11 115.57 42.75C115.73 43.39 115.81 44.0633 115.81 44.77ZM113.06 44.77C113.06 43.9767 112.953 43.2667 112.74 42.64C112.527 42.0067 112.223 41.47 111.83 41.03C111.437 40.59 110.957 40.2533 110.39 40.02C109.83 39.7867 109.197 39.67 108.49 39.67C107.783 39.67 107.147 39.7867 106.58 40.02C106.02 40.2533 105.54 40.59 105.14 41.03C104.747 41.47 104.443 42.0067 104.23 42.64C104.017 43.2667 103.91 43.9767 103.91 44.77C103.91 45.5633 104.017 46.2767 104.23 46.91C104.443 47.5367 104.747 48.07 105.14 48.51C105.54 48.9433 106.02 49.2767 106.58 49.51C107.147 49.7433 107.783 49.86 108.49 49.86C109.197 49.86 109.83 49.7433 110.39 49.51C110.957 49.2767 111.437 48.9433 111.83 48.51C112.223 48.07 112.527 47.5367 112.74 46.91C112.953 46.2767 113.06 45.5633 113.06 44.77ZM123.993 49.83C124.513 49.83 124.976 49.7433 125.383 49.57C125.796 49.3967 126.143 49.1533 126.423 48.84C126.703 48.5267 126.916 48.1467 127.063 47.7C127.216 47.2533 127.293 46.7533 127.293 46.2V37.54H129.983V46.2C129.983 47.06 129.843 47.8567 129.563 48.59C129.289 49.3167 128.893 49.9467 128.373 50.48C127.859 51.0067 127.233 51.42 126.493 51.72C125.753 52.0133 124.919 52.16 123.993 52.16C123.059 52.16 122.223 52.0133 121.483 51.72C120.743 51.42 120.113 51.0067 119.593 50.48C119.079 49.9467 118.683 49.3167 118.403 48.59C118.129 47.8567 117.993 47.06 117.993 46.2V37.54H120.683V46.19C120.683 46.7433 120.756 47.2433 120.903 47.69C121.056 48.1367 121.273 48.52 121.553 48.84C121.839 49.1533 122.186 49.3967 122.593 49.57C123.006 49.7433 123.473 49.83 123.993 49.83ZM140.716 40.17C140.636 40.31 140.55 40.4133 140.456 40.48C140.37 40.54 140.26 40.57 140.126 40.57C139.986 40.57 139.833 40.52 139.666 40.42C139.506 40.3133 139.313 40.1967 139.086 40.07C138.86 39.9433 138.593 39.83 138.286 39.73C137.986 39.6233 137.63 39.57 137.216 39.57C136.843 39.57 136.516 39.6167 136.236 39.71C135.956 39.7967 135.72 39.92 135.526 40.08C135.34 40.24 135.2 40.4333 135.106 40.66C135.013 40.88 134.966 41.1233 134.966 41.39C134.966 41.73 135.06 42.0133 135.246 42.24C135.44 42.4667 135.693 42.66 136.006 42.82C136.32 42.98 136.676 43.1233 137.076 43.25C137.476 43.3767 137.886 43.5133 138.306 43.66C138.726 43.8 139.136 43.9667 139.536 44.16C139.936 44.3467 140.293 44.5867 140.606 44.88C140.92 45.1667 141.17 45.52 141.356 45.94C141.55 46.36 141.646 46.87 141.646 47.47C141.646 48.1233 141.533 48.7367 141.306 49.31C141.086 49.8767 140.76 50.3733 140.326 50.8C139.9 51.22 139.376 51.5533 138.756 51.8C138.136 52.04 137.426 52.16 136.626 52.16C136.166 52.16 135.713 52.1133 135.266 52.02C134.82 51.9333 134.39 51.8067 133.976 51.64C133.57 51.4733 133.186 51.2733 132.826 51.04C132.466 50.8067 132.146 50.5467 131.866 50.26L132.656 48.97C132.723 48.8767 132.81 48.8 132.916 48.74C133.023 48.6733 133.136 48.64 133.256 48.64C133.423 48.64 133.603 48.71 133.796 48.85C133.99 48.9833 134.22 49.1333 134.486 49.3C134.753 49.4667 135.063 49.62 135.416 49.76C135.776 49.8933 136.206 49.96 136.706 49.96C137.473 49.96 138.066 49.78 138.486 49.42C138.906 49.0533 139.116 48.53 139.116 47.85C139.116 47.47 139.02 47.16 138.826 46.92C138.64 46.68 138.39 46.48 138.076 46.32C137.763 46.1533 137.406 46.0133 137.006 45.9C136.606 45.7867 136.2 45.6633 135.786 45.53C135.373 45.3967 134.966 45.2367 134.566 45.05C134.166 44.8633 133.81 44.62 133.496 44.32C133.183 44.02 132.93 43.6467 132.736 43.2C132.55 42.7467 132.456 42.19 132.456 41.53C132.456 41.0033 132.56 40.49 132.766 39.99C132.98 39.49 133.286 39.0467 133.686 38.66C134.086 38.2733 134.58 37.9633 135.166 37.73C135.753 37.4967 136.426 37.38 137.186 37.38C138.04 37.38 138.826 37.5133 139.546 37.78C140.266 38.0467 140.88 38.42 141.386 38.9L140.716 40.17Z" fill="#222222"/>
<path d="M151.556 39.68V43.96H156.976V46.11H151.556V52H148.856V37.54H157.976V39.68H151.556ZM166.633 46.54L164.873 41.73C164.786 41.5167 164.696 41.2633 164.603 40.97C164.509 40.6767 164.416 40.36 164.323 40.02C164.236 40.36 164.146 40.68 164.053 40.98C163.959 41.2733 163.869 41.53 163.783 41.75L162.033 46.54H166.633ZM171.383 52H169.303C169.069 52 168.879 51.9433 168.733 51.83C168.586 51.71 168.476 51.5633 168.403 51.39L167.323 48.44H161.333L160.253 51.39C160.199 51.5433 160.096 51.6833 159.943 51.81C159.789 51.9367 159.599 52 159.373 52H157.273L162.963 37.54H165.703L171.383 52ZM180.58 40.17C180.5 40.31 180.413 40.4133 180.32 40.48C180.233 40.54 180.123 40.57 179.99 40.57C179.85 40.57 179.696 40.52 179.53 40.42C179.37 40.3133 179.176 40.1967 178.95 40.07C178.723 39.9433 178.456 39.83 178.15 39.73C177.85 39.6233 177.493 39.57 177.08 39.57C176.706 39.57 176.38 39.6167 176.1 39.71C175.82 39.7967 175.583 39.92 175.39 40.08C175.203 40.24 175.063 40.4333 174.97 40.66C174.876 40.88 174.83 41.1233 174.83 41.39C174.83 41.73 174.923 42.0133 175.11 42.24C175.303 42.4667 175.556 42.66 175.87 42.82C176.183 42.98 176.54 43.1233 176.94 43.25C177.34 43.3767 177.75 43.5133 178.17 43.66C178.59 43.8 179 43.9667 179.4 44.16C179.8 44.3467 180.156 44.5867 180.47 44.88C180.783 45.1667 181.033 45.52 181.22 45.94C181.413 46.36 181.51 46.87 181.51 47.47C181.51 48.1233 181.396 48.7367 181.17 49.31C180.95 49.8767 180.623 50.3733 180.19 50.8C179.763 51.22 179.24 51.5533 178.62 51.8C178 52.04 177.29 52.16 176.49 52.16C176.03 52.16 175.576 52.1133 175.13 52.02C174.683 51.9333 174.253 51.8067 173.84 51.64C173.433 51.4733 173.05 51.2733 172.69 51.04C172.33 50.8067 172.01 50.5467 171.73 50.26L172.52 48.97C172.586 48.8767 172.673 48.8 172.78 48.74C172.886 48.6733 173 48.64 173.12 48.64C173.286 48.64 173.466 48.71 173.66 48.85C173.853 48.9833 174.083 49.1333 174.35 49.3C174.616 49.4667 174.926 49.62 175.28 49.76C175.64 49.8933 176.07 49.96 176.57 49.96C177.336 49.96 177.93 49.78 178.35 49.42C178.77 49.0533 178.98 48.53 178.98 47.85C178.98 47.47 178.883 47.16 178.69 46.92C178.503 46.68 178.253 46.48 177.94 46.32C177.626 46.1533 177.27 46.0133 176.87 45.9C176.47 45.7867 176.063 45.6633 175.65 45.53C175.236 45.3967 174.83 45.2367 174.43 45.05C174.03 44.8633 173.673 44.62 173.36 44.32C173.046 44.02 172.793 43.6467 172.6 43.2C172.413 42.7467 172.32 42.19 172.32 41.53C172.32 41.0033 172.423 40.49 172.63 39.99C172.843 39.49 173.15 39.0467 173.55 38.66C173.95 38.2733 174.443 37.9633 175.03 37.73C175.616 37.4967 176.29 37.38 177.05 37.38C177.903 37.38 178.69 37.5133 179.41 37.78C180.13 38.0467 180.743 38.42 181.25 38.9L180.58 40.17ZM196.046 37.54V52H193.346V45.68H186.556V52H183.856V37.54H186.556V43.76H193.346V37.54H196.046ZM201.966 52H199.266V37.54H201.966V52ZM218.994 44.77C218.994 45.83 218.817 46.8133 218.464 47.72C218.117 48.62 217.624 49.4 216.984 50.06C216.344 50.72 215.574 51.2367 214.674 51.61C213.774 51.9767 212.774 52.16 211.674 52.16C210.58 52.16 209.584 51.9767 208.684 51.61C207.784 51.2367 207.01 50.72 206.364 50.06C205.724 49.4 205.227 48.62 204.874 47.72C204.52 46.8133 204.344 45.83 204.344 44.77C204.344 43.71 204.52 42.73 204.874 41.83C205.227 40.9233 205.724 40.14 206.364 39.48C207.01 38.82 207.784 38.3067 208.684 37.94C209.584 37.5667 210.58 37.38 211.674 37.38C212.407 37.38 213.097 37.4667 213.744 37.64C214.39 37.8067 214.984 38.0467 215.524 38.36C216.064 38.6667 216.547 39.0433 216.974 39.49C217.407 39.93 217.774 40.4233 218.074 40.97C218.374 41.5167 218.6 42.11 218.754 42.75C218.914 43.39 218.994 44.0633 218.994 44.77ZM216.244 44.77C216.244 43.9767 216.137 43.2667 215.924 42.64C215.71 42.0067 215.407 41.47 215.014 41.03C214.62 40.59 214.14 40.2533 213.574 40.02C213.014 39.7867 212.38 39.67 211.674 39.67C210.967 39.67 210.33 39.7867 209.764 40.02C209.204 40.2533 208.724 40.59 208.324 41.03C207.93 41.47 207.627 42.0067 207.414 42.64C207.2 43.2667 207.094 43.9767 207.094 44.77C207.094 45.5633 207.2 46.2767 207.414 46.91C207.627 47.5367 207.93 48.07 208.324 48.51C208.724 48.9433 209.204 49.2767 209.764 49.51C210.33 49.7433 210.967 49.86 211.674 49.86C212.38 49.86 213.014 49.7433 213.574 49.51C214.14 49.2767 214.62 48.9433 215.014 48.51C215.407 48.07 215.71 47.5367 215.924 46.91C216.137 46.2767 216.244 45.5633 216.244 44.77ZM233.546 37.54V52H232.166C231.953 52 231.773 51.9667 231.626 51.9C231.486 51.8267 231.349 51.7067 231.216 51.54L223.666 41.9C223.706 42.34 223.726 42.7467 223.726 43.12V52H221.356V37.54H222.766C222.879 37.54 222.976 37.5467 223.056 37.56C223.143 37.5667 223.216 37.5867 223.276 37.62C223.343 37.6467 223.406 37.69 223.466 37.75C223.526 37.8033 223.593 37.8767 223.666 37.97L231.246 47.65C231.226 47.4167 231.209 47.1867 231.196 46.96C231.183 46.7333 231.176 46.5233 231.176 46.33V37.54H233.546Z" fill="#F16D7F"/>
</svg>
